<mxfile host="65bd71144e">
    <diagram id="kWJPRSuahtoxz2MJyqCv" name="第 1 页">
        <mxGraphModel dx="955" dy="670" grid="1" gridSize="10" guides="1" tooltips="1" connect="1" arrows="1" fold="1" page="1" pageScale="1" pageWidth="827" pageHeight="1169" math="0" shadow="0">
            <root>
                <mxCell id="0"/>
                <mxCell id="1" parent="0"/>
                <mxCell id="5" style="edgeStyle=none;html=1;exitX=1;exitY=0.5;exitDx=0;exitDy=0;entryX=0;entryY=0.5;entryDx=0;entryDy=0;sketch=1;" edge="1" parent="1" source="2" target="3">
                    <mxGeometry relative="1" as="geometry"/>
                </mxCell>
                <mxCell id="6" style="edgeStyle=none;sketch=1;html=1;exitX=1;exitY=0.5;exitDx=0;exitDy=0;entryX=0;entryY=0.5;entryDx=0;entryDy=0;" edge="1" parent="1" source="2" target="4">
                    <mxGeometry relative="1" as="geometry"/>
                </mxCell>
                <mxCell id="12" style="edgeStyle=orthogonalEdgeStyle;sketch=1;html=1;exitX=1;exitY=0.5;exitDx=0;exitDy=0;entryX=0;entryY=0.5;entryDx=0;entryDy=0;curved=1;" edge="1" parent="1" source="2" target="11">
                    <mxGeometry relative="1" as="geometry">
                        <Array as="points">
                            <mxPoint x="150" y="240"/>
                            <mxPoint x="150" y="381"/>
                        </Array>
                    </mxGeometry>
                </mxCell>
                <mxCell id="20" style="edgeStyle=orthogonalEdgeStyle;rounded=0;sketch=1;html=1;exitX=1;exitY=0.5;exitDx=0;exitDy=0;entryX=0;entryY=0.5;entryDx=0;entryDy=0;curved=1;" edge="1" parent="1" source="2" target="19">
                    <mxGeometry relative="1" as="geometry"/>
                </mxCell>
                <mxCell id="2" value="Set 对象" style="rounded=0;whiteSpace=wrap;html=1;fillColor=#ffe6cc;strokeColor=#d79b00;comic=1;" vertex="1" parent="1">
                    <mxGeometry x="40" y="220" width="80" height="40" as="geometry"/>
                </mxCell>
                <mxCell id="8" style="edgeStyle=none;sketch=1;html=1;exitX=1;exitY=0.5;exitDx=0;exitDy=0;entryX=0;entryY=0.5;entryDx=0;entryDy=0;" edge="1" parent="1" source="3" target="7">
                    <mxGeometry relative="1" as="geometry"/>
                </mxCell>
                <mxCell id="3" value="intset" style="rounded=0;whiteSpace=wrap;html=1;fillColor=#dae8fc;strokeColor=#6c8ebf;comic=1;" vertex="1" parent="1">
                    <mxGeometry x="160" y="80.69" width="80" height="30" as="geometry"/>
                </mxCell>
                <mxCell id="10" style="edgeStyle=none;sketch=1;html=1;exitX=1;exitY=0.5;exitDx=0;exitDy=0;entryX=0;entryY=0.5;entryDx=0;entryDy=0;" edge="1" parent="1" source="4" target="9">
                    <mxGeometry relative="1" as="geometry"/>
                </mxCell>
                <mxCell id="4" value="dict" style="rounded=0;whiteSpace=wrap;html=1;fillColor=#dae8fc;strokeColor=#6c8ebf;comic=1;" vertex="1" parent="1">
                    <mxGeometry x="160" y="225" width="80" height="30" as="geometry"/>
                </mxCell>
                <mxCell id="7" value="" style="shape=image;imageAspect=0;aspect=fixed;verticalLabelPosition=bottom;verticalAlign=top;image=https://codereaper-image-bed.oss-cn-shenzhen.aliyuncs.com/img/image-20220912074821953.png;imageBorder=default;sketch=1;" vertex="1" parent="1">
                    <mxGeometry x="280" y="38.69" width="390" height="114" as="geometry"/>
                </mxCell>
                <mxCell id="9" value="" style="shape=image;imageAspect=0;aspect=fixed;verticalLabelPosition=bottom;verticalAlign=top;sketch=1;image=https://codereaper-image-bed.oss-cn-shenzhen.aliyuncs.com/img/image-20220912074903058.png;imageBorder=default;" vertex="1" parent="1">
                    <mxGeometry x="280" y="170.88" width="325.29" height="138.25" as="geometry"/>
                </mxCell>
                <mxCell id="14" style="edgeStyle=orthogonalEdgeStyle;curved=1;sketch=1;html=1;exitX=1;exitY=0.5;exitDx=0;exitDy=0;entryX=0;entryY=0.5;entryDx=0;entryDy=0;" edge="1" parent="1" source="11" target="13">
                    <mxGeometry relative="1" as="geometry"/>
                </mxCell>
                <mxCell id="11" value="编码转换" style="rounded=0;whiteSpace=wrap;html=1;fillColor=#b0e3e6;strokeColor=#0e8088;comic=1;" vertex="1" parent="1">
                    <mxGeometry x="170" y="366.25" width="80" height="30" as="geometry"/>
                </mxCell>
                <mxCell id="17" value="true" style="edgeStyle=orthogonalEdgeStyle;sketch=1;html=1;exitX=1;exitY=0.5;exitDx=0;exitDy=0;entryX=0;entryY=0.5;entryDx=0;entryDy=0;rounded=0;" edge="1" parent="1" source="13" target="15">
                    <mxGeometry x="0.3174" relative="1" as="geometry">
                        <Array as="points">
                            <mxPoint x="460" y="381.12"/>
                            <mxPoint x="460" y="344.12"/>
                        </Array>
                        <mxPoint as="offset"/>
                    </mxGeometry>
                </mxCell>
                <mxCell id="18" value="false" style="edgeStyle=orthogonalEdgeStyle;rounded=0;sketch=1;html=1;exitX=1;exitY=0.5;exitDx=0;exitDy=0;entryX=0;entryY=0.5;entryDx=0;entryDy=0;" edge="1" parent="1" source="13" target="16">
                    <mxGeometry x="0.3174" relative="1" as="geometry">
                        <Array as="points">
                            <mxPoint x="460" y="381.12"/>
                            <mxPoint x="460" y="418.12"/>
                        </Array>
                        <mxPoint as="offset"/>
                    </mxGeometry>
                </mxCell>
                <mxCell id="13" value="所有元素都是整数值&lt;br&gt;&amp;amp;&amp;amp; 元素数量&amp;lt;512" style="rhombus;whiteSpace=wrap;html=1;sketch=0;fillColor=#ffe6cc;strokeColor=#d79b00;comic=1;" vertex="1" parent="1">
                    <mxGeometry x="280" y="360" width="150" height="42.5" as="geometry"/>
                </mxCell>
                <mxCell id="15" value="intset" style="rounded=0;whiteSpace=wrap;html=1;fillColor=#d5e8d4;strokeColor=#82b366;comic=1;" vertex="1" parent="1">
                    <mxGeometry x="500" y="330" width="80" height="30" as="geometry"/>
                </mxCell>
                <mxCell id="16" value="dict" style="rounded=0;whiteSpace=wrap;html=1;fillColor=#d5e8d4;strokeColor=#82b366;comic=1;" vertex="1" parent="1">
                    <mxGeometry x="500" y="402.49999999999994" width="80" height="30" as="geometry"/>
                </mxCell>
                <mxCell id="22" style="edgeStyle=orthogonalEdgeStyle;curved=1;rounded=0;sketch=1;html=1;exitX=1;exitY=0.5;exitDx=0;exitDy=0;entryX=0;entryY=0.5;entryDx=0;entryDy=0;" edge="1" parent="1" source="19" target="21">
                    <mxGeometry relative="1" as="geometry"/>
                </mxCell>
                <mxCell id="19" value="常用命令" style="rounded=0;whiteSpace=wrap;html=1;fillColor=#e1d5e7;strokeColor=#9673a6;comic=1;" vertex="1" parent="1">
                    <mxGeometry x="160" y="552.5" width="80" height="30" as="geometry"/>
                </mxCell>
                <mxCell id="21" value="①&amp;nbsp;SADD SREM 添加/删除元素&lt;br&gt;② SMEMBERS 获取集合所有元素&lt;br&gt;③ SISMEMBER 判断元素是否在集合中&lt;br&gt;④ SINTER SUNION SDIFF&amp;nbsp;集合运算：交集 并集 差集&lt;br&gt;⑤ SCARD 集合元素数量&lt;br&gt;⑥ SRANDMEMBER 随机获取一个元素" style="rounded=0;whiteSpace=wrap;html=1;fillColor=#ffe6cc;strokeColor=#d79b00;comic=1;align=left;sketch=1;" vertex="1" parent="1">
                    <mxGeometry x="270" y="517.5" width="300" height="100" as="geometry"/>
                </mxCell>
                <mxCell id="23" value="参考资料：&lt;br&gt;https://blog.csdn.net/jungeCSND/article/details/125102156" style="rounded=0;whiteSpace=wrap;html=1;fillColor=#dae8fc;strokeColor=#6c8ebf;comic=1;align=left;sketch=1;" vertex="1" parent="1">
                    <mxGeometry x="580" y="543.75" width="320" height="47.5" as="geometry"/>
                </mxCell>
            </root>
        </mxGraphModel>
    </diagram>
</mxfile>